<!DOCTYPE svg PUBLIC "-//W3C//DTD SVG 20010904//EN" "http://www.w3.org/TR/2001/REC-SVG-20010904/DTD/svg10.dtd">
<svg version="1.0" xmlns="http://www.w3.org/2000/svg" width="500px" height="500px" viewBox="0 0 5000 5000" preserveAspectRatio="xMidYMid meet">
<g id="layer101" fill="#262738" stroke="none">
 <path d="M0 2500 l0 -2500 2500 0 2500 0 0 2500 0 2500 -2500 0 -2500 0 0 -2500z"/>
 </g>
<g id="layer102" fill="#f5f6f6" stroke="none">
 <path d="M1 3823 c1 -1064 3 -1167 15 -1061 17 137 41 258 43 213 1 -17 19 37 40 120 54 207 89 304 181 490 126 255 252 434 450 639 242 251 554 457 890 589 109 43 372 115 429 118 19 1 15 4 -14 9 -27 5 -32 8 -15 9 14 0 58 8 98 16 41 9 129 19 195 24 75 5 -352 9 -1095 10 l-1218 1 1 -1177z"/>
 <path d="M2815 4989 c98 -12 257 -47 220 -48 -19 -1 4 -11 65 -27 342 -89 643 -236 910 -442 103 -80 318 -289 407 -394 154 -185 321 -476 408 -713 38 -103 104 -341 106 -385 1 -19 3 -17 8 10 6 29 9 17 25 -75 10 -60 21 -144 26 -185 4 -41 8 453 9 1098 l1 1172 -1127 -1 c-662 -1 -1099 -5 -1058 -10z"/>
 <path d="M930 4344 c-78 -53 -259 -244 -361 -380 -519 -694 -640 -1563 -328 -2360 114 -292 315 -599 540 -823 253 -253 592 -464 929 -579 178 -60 281 -85 475 -112 805 -114 1653 217 2181 852 360 432 564 993 564 1548 0 617 -241 1225 -660 1663 -126 133 -149 127 -162 -45 -26 -336 -167 -642 -413 -897 -135 -139 -243 -222 -395 -300 -177 -92 -339 -141 -563 -172 -137 -19 -132 -52 13 -89 289 -73 532 -317 600 -603 25 -104 27 -296 4 -400 -21 -95 -100 -257 -163 -332 -115 -138 -279 -243 -445 -285 -100 -25 -294 -27 -399 -4 -98 21 -258 101 -339 168 -137 113 -232 261 -279 431 -30 108 -32 305 -5 415 39 158 120 295 244 412 113 107 238 171 410 213 71 17 99 38 73 55 -7 4 -72 19 -144 33 -294 58 -523 163 -727 332 -331 276 -528 647 -561 1055 -15 189 -20 214 -44 218 -11 1 -31 -5 -45 -14z"/>
 <path d="M4982 2268 c-15 -149 -39 -272 -42 -218 -1 29 -4 25 -16 -30 -85 -395 -248 -744 -491 -1050 -86 -109 -304 -326 -411 -410 -189 -148 -414 -274 -648 -366 -112 -44 -396 -123 -452 -125 -23 -1 -22 -2 8 -8 32 -6 28 -8 -40 -19 -129 -21 -260 -32 -390 -32 -130 0 -261 11 -390 32 -68 11 -72 13 -40 19 27 5 29 7 10 8 -35 2 -248 54 -350 86 -182 58 -427 179 -610 301 -186 124 -413 335 -562 522 -216 271 -392 637 -472 984 -15 63 -25 91 -26 73 l-2 -30 -9 35 c-9 37 -36 226 -42 295 -2 22 -4 -494 -5 -1147 l-2 -1188 2500 0 2500 0 0 1195 c0 657 -1 1195 -3 1195 -1 0 -8 -55 -15 -122z"/>
 </g>

</svg>