<!DOCTYPE svg PUBLIC "-//W3C//DTD SVG 20010904//EN" "http://www.w3.org/TR/2001/REC-SVG-20010904/DTD/svg10.dtd">
<svg version="1.0" xmlns="http://www.w3.org/2000/svg" width="500px" height="500px" viewBox="0 0 5000 5000" preserveAspectRatio="xMidYMid meet">
<g id="layer101" fill="#262738" stroke="none">
 <path d="M0 2500 l0 -2500 2500 0 2500 0 0 2500 0 2500 -2500 0 -2500 0 0 -2500z"/>
 </g>
<g id="layer102" fill="#f5f6f6" stroke="none">
 <path d="M1 3838 c1 -1033 3 -1150 15 -1048 81 690 472 1352 1024 1737 122 85 254 165 356 216 268 134 604 227 894 246 64 5 -418 9 -1087 10 l-1203 1 1 -1162z"/>
 <path d="M2815 4993 c76 -7 260 -44 364 -74 315 -90 621 -247 876 -449 100 -79 287 -261 371 -361 79 -95 215 -296 278 -411 155 -286 260 -638 289 -973 2 -22 4 481 5 1118 l2 1157 -1112 -2 c-612 -1 -1095 -3 -1073 -5z"/>
 <path d="M889 4273 c-441 -398 -723 -957 -780 -1548 -16 -165 -6 -466 20 -620 131 -771 618 -1424 1316 -1765 339 -166 672 -242 1055 -242 385 0 718 77 1055 242 693 339 1186 996 1314 1750 33 193 41 464 21 658 -47 442 -233 897 -503 1231 -65 81 -226 251 -237 251 -4 0 -10 -46 -13 -102 -14 -246 -105 -508 -255 -733 -88 -133 -283 -328 -412 -414 -229 -153 -484 -244 -751 -269 l-84 -8 98 -23 c307 -72 552 -305 639 -608 30 -104 33 -351 5 -453 -72 -261 -266 -478 -517 -581 -116 -47 -214 -62 -359 -56 -148 6 -213 22 -338 82 -305 148 -487 439 -486 780 1 420 303 778 716 847 l72 12 -94 13 c-664 90 -1190 561 -1346 1205 -22 90 -42 250 -48 376 l-2 53 -86 -78z"/>
 <path d="M4982 2238 c-40 -406 -200 -829 -445 -1172 -248 -349 -554 -610 -932 -796 -253 -125 -474 -196 -735 -237 -143 -22 -565 -25 -705 -5 -814 117 -1510 611 -1886 1337 -148 285 -235 576 -268 895 -5 53 -9 -354 -10 -1087 l-1 -1173 2500 0 2500 0 0 1180 c0 649 -1 1180 -3 1180 -1 0 -8 -55 -15 -122z"/>
 </g>

</svg>